<?xml version="1.0" standalone="no"?>
<!DOCTYPE svg PUBLIC "-//W3C//DTD SVG 20010904//EN"
 "http://www.w3.org/TR/2001/REC-SVG-20010904/DTD/svg10.dtd">
<svg version="1.0" xmlns="http://www.w3.org/2000/svg"
 width="512.000000pt" height="512.000000pt" viewBox="0 0 512.000000 512.000000"
 preserveAspectRatio="xMidYMid meet">
<metadata>
Created by potrace 1.11, written by Peter Selinger 2001-2013
</metadata>
<g transform="translate(0.000000,512.000000) scale(0.100000,-0.100000)"
fill="#000000" stroke="none">
<path d="M2126 5110 c-109 -19 -227 -108 -279 -212 -33 -67 -47 -153 -47 -300
l0 -118 -442 0 c-244 0 -470 -4 -502 -10 -150 -24 -273 -136 -317 -285 -21
-75 -21 -3815 0 -3890 30 -101 97 -187 187 -240 93 -55 93 -55 1189 -55 608 0
1034 4 1069 10 166 27 299 162 326 330 5 36 10 118 10 183 l0 117 443 0 c243
0 469 4 501 10 150 24 273 136 317 285 21 75 21 3815 0 3890 -30 101 -97 187
-187 240 -93 55 -91 55 -1199 54 -561 -1 -1042 -5 -1069 -9z m2145 -160 c51
-14 118 -76 145 -134 l24 -51 0 -1879 c0 -1457 -3 -1888 -12 -1920 -17 -56
-100 -141 -153 -155 -26 -7 -198 -11 -497 -11 l-458 0 0 120 0 119 416 3 416
3 24 28 24 28 -2 1786 -3 1785 -28 24 -28 24 -934 0 c-663 0 -941 -3 -958 -11
-36 -16 -47 -50 -47 -144 l0 -85 -120 0 -120 0 0 136 c0 78 5 154 12 177 16
53 92 134 143 152 33 12 214 14 1080 15 657 0 1053 -4 1076 -10z m-1746 -430
l39 -40 -102 0 -102 0 0 40 0 40 63 0 c60 0 65 -2 102 -40z m495 -16 c32 -33
47 -54 35 -50 -42 15 -121 26 -189 26 -71 0 -73 1 -111 40 l-39 40 125 0 125
0 54 -56z m723 -242 l298 -298 -3 -122 -3 -122 -420 420 -420 420 125 0 125 0
298 -298z m297 118 c0 -99 -1 -180 -3 -180 -1 0 -83 81 -182 180 l-180 180
183 0 182 0 0 -180z m-1025 -79 c46 -21 98 -69 123 -115 16 -29 17 -153 17
-1946 0 -1793 -1 -1917 -17 -1946 -22 -41 -71 -90 -112 -112 -29 -16 -110 -17
-1084 -20 -747 -2 -1066 1 -1095 9 -55 14 -138 98 -155 155 -17 59 -18 3768 0
3826 15 51 82 126 133 149 38 18 93 19 1095 19 1000 0 1057 -1 1095 -19z
m1025 -941 l0 -125 -360 360 -360 360 0 65 c0 65 -12 157 -26 195 -3 11 163
-149 370 -355 l376 -375 0 -125z m0 -480 l0 -125 -360 360 -360 360 0 125 0
125 360 -360 360 -360 0 -125z m0 -480 l0 -125 -360 360 -360 360 0 125 0 125
360 -360 360 -360 0 -125z m0 -480 l0 -125 -360 360 -360 360 0 125 0 125 360
-360 360 -360 0 -125z m0 -474 l0 -131 -360 360 -360 360 0 124 0 123 360
-352 360 -353 0 -131z m-120 -238 c0 -5 -55 -8 -122 -8 l-123 0 -177 177 -178
178 0 130 0 130 300 -300 c165 -165 300 -303 300 -307z m-480 0 c0 -4 -27 -8
-60 -8 l-60 0 0 67 0 67 60 -59 c33 -33 60 -63 60 -67z"/>
<path d="M1123 4148 c-25 -12 -24 -10 -179 -423 -53 -143 -97 -273 -97 -288 0
-60 78 -93 123 -52 11 10 30 44 41 77 l22 58 127 0 128 0 22 -59 c26 -71 49
-94 92 -94 33 0 78 40 78 70 0 22 -249 686 -263 700 -18 18 -69 24 -94 11z
m44 -466 c-33 -2 -62 -1 -65 2 -2 3 6 34 18 68 41 112 39 111 74 17 l32 -84
-59 -3z"/>
<path d="M1523 4068 c-31 -15 -46 -63 -30 -96 24 -52 18 -52 665 -52 l602 0 0
-1285 c0 -933 3 -1291 11 -1309 27 -59 117 -55 138 6 15 43 15 2653 1 2695 -6
17 -22 35 -36 42 -34 15 -1319 14 -1351 -1z"/>
<path d="M962 3188 c-12 -6 -27 -27 -33 -47 -7 -24 -9 -467 -7 -1364 l3 -1329
28 -24 28 -24 654 0 c465 0 661 3 679 11 59 27 55 117 -6 138 -21 7 -232 11
-629 11 l-599 0 0 1285 c0 920 -3 1291 -11 1308 -11 24 -48 48 -72 46 -7 0
-22 -5 -35 -11z"/>
<path d="M1555 2787 c-205 -54 -332 -240 -304 -447 21 -148 95 -277 248 -430
151 -150 363 -303 421 -303 54 0 258 143 402 281 215 207 303 404 264 590 -49
233 -280 368 -516 302 -20 -5 -62 -26 -94 -45 l-58 -35 -31 24 c-86 63 -228
90 -332 63z m172 -162 c34 -10 70 -33 112 -70 34 -30 69 -55 77 -55 25 0 56
20 102 66 45 45 114 74 177 74 56 0 127 -31 171 -76 128 -127 77 -330 -136
-543 -70 -71 -206 -180 -273 -220 l-39 -24 -81 56 c-200 136 -367 322 -412
458 -23 67 -22 157 1 205 39 82 127 141 215 143 19 1 58 -6 86 -14z"/>
<path d="M2410 1107 c-13 -7 -31 -24 -39 -39 -14 -25 -10 -40 98 -330 149
-399 147 -394 182 -408 38 -16 82 1 99 38 42 94 242 643 243 670 2 64 -75 100
-123 57 -11 -10 -30 -44 -41 -77 l-22 -58 -127 0 -127 0 -22 58 c-30 84 -71
114 -121 89z m330 -314 c0 -17 -53 -153 -60 -153 -7 0 -60 136 -60 153 0 4 27
7 60 7 33 0 60 -3 60 -7z"/>
</g>
</svg>
