<?xml version="1.0" encoding="iso-8859-1"?>
<!-- Generator: Adobe Illustrator 19.0.0, SVG Export Plug-In . SVG Version: 6.00 Build 0)  -->
<svg version="1.1" id="Layer_1" xmlns="http://www.w3.org/2000/svg" xmlns:xlink="http://www.w3.org/1999/xlink" x="0px" y="0px"
	 viewBox="0 0 512 512" style="enable-background:new 0 0 512 512;" xml:space="preserve">
<path style="fill:#D7DEED;" d="M425.169,439H215.558c-14.19,0-25.694-11.503-25.694-25.694V34.694
	C189.864,20.504,201.368,9,215.558,9h209.612c14.19,0,25.694,11.504,25.694,25.694v378.612C450.863,427.497,439.36,439,425.169,439z
	"/>
<path style="fill:#EFF2FA;" d="M298.041,504H86.686c-14.262,0-25.822-11.562-25.822-25.822V98.822
	C60.863,84.561,72.424,73,86.686,73h211.355c14.261,0,25.822,11.561,25.822,25.822v379.356C323.863,492.438,312.302,504,298.041,504
	z"/>
<path style="fill:#FF6464;" d="M134.568,273.211c0-17.454,14.067-31.603,31.42-31.603c8.601,0,16.388,3.481,22.059,9.114
	c2.103,2.089,5.53,2.089,7.633,0c5.671-5.633,13.458-9.114,22.059-9.114c17.353,0,31.42,14.149,31.42,31.603l0,0
	c0,32.639-42.028,62.331-54.093,70.182c-1.95,1.269-4.454,1.269-6.404,0C176.598,335.542,134.568,305.851,134.568,273.211"/>
<g>
	<path style="fill:#2D2B29;" d="M192.092,241.885c-7.385-6.419-16.972-10.074-27.03-10.074c-22.509,0-40.822,18.003-40.822,40.131
		c0,42.972,61.371,77.382,63.983,78.826c1.204,0.666,2.537,0.998,3.87,0.998s2.666-0.333,3.87-0.998
		c2.612-1.443,63.982-35.854,63.982-78.826c0-22.128-18.313-40.131-40.822-40.131C209.064,231.811,199.478,235.466,192.092,241.885z
		 M243.945,271.942c0,25.76-34.435,51.991-51.857,62.571c-17.428-10.56-51.848-36.748-51.848-62.571
		c0-13.306,11.135-24.131,24.822-24.131c8.187,0,15.846,3.936,20.49,10.528c1.499,2.128,3.938,3.394,6.541,3.394
		s5.042-1.266,6.541-3.394c4.644-6.593,12.303-10.528,20.489-10.528C232.81,247.811,243.945,258.636,243.945,271.942z"/>
	<path style="fill:#2D2B29;" d="M419.886,0H220.025c-22.043,0-39.978,17.934-39.978,39.978v23.978H92.114
		c-22.044,0-39.978,17.934-39.978,39.978v368.089C52.136,494.066,70.07,512,92.114,512h199.86c22.044,0,39.978-17.934,39.978-39.978
		v-23.978h87.933c22.043,0,39.978-17.934,39.978-39.978V39.978C459.863,17.934,441.929,0,419.886,0z M315.953,119.791
		c-0.001,0.083-0.001,0.167,0,0.25v47.845c0,0.001,0,0.003,0,0.004v47.961c0,0.002,0,0.003,0,0.005v47.961c0,0.001,0,0.003,0,0.005
		v47.961c0,0.001,0,0.004,0,0.005v47.961c0,0.001,0,0.004,0,0.005v112.265c0,13.221-10.756,23.978-23.978,23.978H92.114
		c-13.222,0-23.978-10.756-23.978-23.978V103.933c0-13.221,10.756-23.978,23.978-23.978h95.855c0.026,0,0.052,0.004,0.078,0.004
		s0.051-0.003,0.078-0.004h39.813c0.027,0,0.054,0.004,0.082,0.004s0.055-0.004,0.082-0.004h63.873
		c13.222,0,23.978,10.757,23.978,23.978V119.791z M236.021,63.955v-7.983h12.669l7.983,7.983H236.021z M271.316,55.972h25.339
		l11.349,11.349c-4.911-2.159-10.33-3.366-16.029-3.366H279.3L271.316,55.972z M319.283,55.972h25.339l59.269,59.269v25.339
		L319.283,55.972z M367.249,55.972h36.642v36.642L367.249,55.972z M328.587,87.904l75.304,75.304v25.339l-71.938-71.938v-12.675
		C331.953,98.234,330.746,92.814,328.587,87.904z M331.953,356.442v-25.34l60.625,60.625H367.24L331.953,356.442z M344.611,391.728
		h-12.659v-12.659L344.611,391.728z M331.953,308.475v-25.339l71.938,71.939v25.339L331.953,308.475z M331.953,260.508v-25.339
		l71.938,71.938v25.339L331.953,260.508z M331.953,212.542v-25.339l71.938,71.939v25.339L331.953,212.542z M331.953,164.575v-25.339
		l71.938,71.938v25.339L331.953,164.575z M443.863,408.067c0,13.221-10.756,23.978-23.978,23.978h-87.933v-24.317h79.938
		c0.263,0,0.527-0.015,0.79-0.041c0.118-0.011,0.233-0.034,0.351-0.05c0.141-0.021,0.283-0.037,0.423-0.064
		c0.134-0.026,0.265-0.064,0.396-0.097c0.121-0.03,0.243-0.057,0.362-0.093c0.131-0.04,0.257-0.088,0.384-0.134
		c0.119-0.042,0.238-0.082,0.354-0.129c0.119-0.05,0.234-0.108,0.35-0.163c0.12-0.057,0.242-0.11,0.36-0.173
		c0.112-0.06,0.219-0.129,0.328-0.194c0.115-0.069,0.231-0.133,0.343-0.208c0.122-0.082,0.238-0.173,0.355-0.261
		c0.091-0.068,0.185-0.132,0.274-0.205c0.408-0.335,0.783-0.709,1.118-1.118c0.073-0.089,0.136-0.183,0.205-0.274
		c0.088-0.117,0.179-0.232,0.261-0.354c0.075-0.112,0.14-0.228,0.209-0.343c0.065-0.108,0.133-0.215,0.193-0.327
		c0.063-0.119,0.118-0.242,0.175-0.364c0.054-0.115,0.111-0.227,0.16-0.345c0.05-0.119,0.09-0.242,0.133-0.363
		c0.044-0.125,0.093-0.248,0.131-0.376c0.037-0.122,0.064-0.246,0.095-0.37c0.033-0.129,0.069-0.257,0.095-0.389
		c0.029-0.145,0.046-0.291,0.067-0.437c0.016-0.112,0.037-0.222,0.048-0.337c0.026-0.264,0.04-0.528,0.04-0.792v-47.962
		c0-0.002,0-0.003,0-0.005v-47.961c0-0.001,0-0.003,0-0.005V255.83c0-0.001,0-0.003,0-0.005v-47.961c0-0.002,0-0.003,0-0.005
		v-47.961c0-0.001,0-0.003,0-0.005v-47.961c0-0.002,0-0.004,0-0.006V47.972c0-4.418-3.582-8-8-8h-63.955c0,0-0.001,0-0.002,0h-95.93
		c0,0-0.002,0-0.003,0h-23.98c-4.418,0-8,3.582-8,8v15.983h-23.972V39.978c0-13.221,10.756-23.978,23.978-23.978h199.861
		c13.221,0,23.978,10.756,23.978,23.978v368.089H443.863z"/>
	<path style="fill:#2D2B29;" d="M99.605,170.697l4.049-10.798h24.886l4.049,10.798c1.205,3.211,4.252,5.193,7.492,5.193
		c0.933,0,1.883-0.164,2.808-0.511c4.137-1.551,6.233-6.163,4.682-10.3l-23.983-63.956c-0.029-0.079-0.067-0.152-0.1-0.229
		c-0.054-0.132-0.109-0.264-0.171-0.394c-0.056-0.119-0.117-0.234-0.179-0.349c-0.061-0.113-0.122-0.225-0.188-0.334
		c-0.071-0.119-0.146-0.234-0.223-0.349c-0.068-0.1-0.136-0.2-0.208-0.297c-0.082-0.111-0.167-0.219-0.255-0.324
		c-0.079-0.097-0.159-0.191-0.243-0.284c-0.088-0.097-0.178-0.19-0.269-0.281c-0.095-0.095-0.191-0.188-0.291-0.278
		c-0.089-0.081-0.181-0.158-0.273-0.235c-0.109-0.09-0.22-0.178-0.334-0.263c-0.095-0.069-0.19-0.136-0.288-0.201
		c-0.118-0.079-0.236-0.157-0.359-0.23c-0.106-0.063-0.215-0.123-0.324-0.182c-0.118-0.063-0.235-0.126-0.357-0.183
		c-0.126-0.06-0.255-0.114-0.385-0.167c-0.079-0.033-0.154-0.071-0.235-0.102c-0.035-0.013-0.07-0.021-0.105-0.033
		c-0.14-0.051-0.282-0.093-0.425-0.135c-0.111-0.033-0.222-0.069-0.334-0.097c-0.141-0.036-0.285-0.062-0.427-0.09
		c-0.115-0.022-0.229-0.048-0.345-0.065c-0.142-0.021-0.285-0.032-0.428-0.046c-0.117-0.011-0.233-0.026-0.35-0.031
		c-0.144-0.007-0.289-0.004-0.434-0.004c-0.115,0.001-0.23-0.002-0.345,0.003c-0.143,0.007-0.286,0.024-0.429,0.039
		c-0.117,0.012-0.233,0.02-0.35,0.037c-0.134,0.02-0.268,0.049-0.402,0.076c-0.125,0.025-0.249,0.048-0.372,0.079
		c-0.124,0.031-0.247,0.071-0.371,0.108c-0.131,0.039-0.262,0.078-0.391,0.124c-0.037,0.013-0.075,0.021-0.112,0.036
		c-0.086,0.032-0.166,0.073-0.25,0.108c-0.122,0.051-0.244,0.102-0.364,0.158c-0.127,0.06-0.25,0.125-0.373,0.191
		c-0.104,0.056-0.208,0.112-0.31,0.173c-0.126,0.075-0.249,0.155-0.37,0.237c-0.094,0.063-0.187,0.127-0.278,0.194
		c-0.117,0.086-0.229,0.176-0.341,0.268c-0.091,0.075-0.181,0.152-0.269,0.231c-0.101,0.091-0.199,0.186-0.294,0.282
		c-0.09,0.09-0.179,0.182-0.265,0.277c-0.085,0.094-0.167,0.189-0.247,0.287c-0.086,0.105-0.171,0.211-0.253,0.322
		c-0.073,0.098-0.141,0.198-0.209,0.3c-0.077,0.113-0.151,0.229-0.223,0.347c-0.066,0.11-0.127,0.222-0.188,0.335
		c-0.062,0.115-0.123,0.229-0.179,0.348c-0.062,0.129-0.117,0.262-0.171,0.395c-0.032,0.078-0.07,0.15-0.099,0.229L84.624,165.08
		c-1.551,4.137,0.545,8.748,4.682,10.299c0.926,0.347,1.875,0.511,2.808,0.511C95.352,175.891,98.4,173.909,99.605,170.697z
		 M116.097,126.717l6.443,17.182h-12.886L116.097,126.717z"/>
	<path style="fill:#2D2B29;" d="M294.784,400.576c-4.134-1.55-8.748,0.545-10.3,4.682l-4.049,10.798h-24.887l-4.049-10.798
		c-1.552-4.137-6.163-6.232-10.3-4.682c-4.137,1.552-6.233,6.163-4.682,10.3l23.983,63.955c0.016,0.042,0.04,0.078,0.056,0.12
		c0.128,0.325,0.274,0.643,0.443,0.948c0.018,0.033,0.033,0.067,0.051,0.1c0.176,0.308,0.378,0.599,0.594,0.881
		c0.055,0.072,0.109,0.142,0.166,0.211c0.222,0.271,0.458,0.531,0.715,0.772c0.03,0.028,0.062,0.052,0.091,0.079
		c0.24,0.218,0.496,0.419,0.764,0.608c0.061,0.043,0.121,0.087,0.184,0.128c0.293,0.195,0.599,0.375,0.922,0.532
		c0.043,0.021,0.089,0.038,0.133,0.058c0.184,0.086,0.369,0.172,0.562,0.244c0.107,0.041,0.216,0.07,0.324,0.105
		c0.069,0.022,0.137,0.046,0.207,0.066c0.335,0.101,0.672,0.178,1.009,0.233c0.06,0.009,0.12,0.016,0.18,0.023
		c0.364,0.05,0.727,0.083,1.088,0.083h0.001h0.001c0.361,0,0.725-0.033,1.088-0.083c0.061-0.008,0.121-0.015,0.181-0.023
		c0.337-0.055,0.674-0.133,1.01-0.233c0.069-0.021,0.137-0.044,0.205-0.066c0.108-0.035,0.217-0.065,0.325-0.105
		c0.195-0.072,0.38-0.159,0.566-0.245c0.042-0.02,0.086-0.035,0.128-0.056c0.325-0.157,0.631-0.338,0.925-0.534
		c0.061-0.04,0.12-0.083,0.18-0.126c0.271-0.19,0.529-0.394,0.771-0.613c0.027-0.025,0.057-0.047,0.084-0.073
		c0.259-0.243,0.496-0.503,0.718-0.776c0.056-0.068,0.11-0.138,0.164-0.208c0.216-0.283,0.419-0.575,0.596-0.883
		c0.018-0.031,0.032-0.064,0.049-0.096c0.17-0.307,0.316-0.626,0.445-0.953c0.016-0.041,0.039-0.077,0.055-0.119l23.983-63.955
		C301.017,406.739,298.921,402.128,294.784,400.576z M267.991,449.238l-6.443-17.182h12.887L267.991,449.238z"/>
	<path style="fill:#2D2B29;" d="M228.021,456.028H108.108V199.867c0-4.418-3.582-8-8-8s-8,3.582-8,8v264.162c0,4.417,3.582,8,8,8
		h127.912c4.418,0,8-3.583,8-8C236.021,459.609,232.439,456.028,228.021,456.028z"/>
	<path style="fill:#2D2B29;" d="M156.07,119.928H275.98v256.161c0,4.418,3.582,8,8,8s8-3.582,8-8V111.928c0-4.418-3.582-8-8-8
		H156.07c-4.418,0-8,3.582-8,8S151.652,119.928,156.07,119.928z"/>
</g>
<g>
</g>
<g>
</g>
<g>
</g>
<g>
</g>
<g>
</g>
<g>
</g>
<g>
</g>
<g>
</g>
<g>
</g>
<g>
</g>
<g>
</g>
<g>
</g>
<g>
</g>
<g>
</g>
<g>
</g>
</svg>
