<?xml version="1.0" encoding="iso-8859-1"?>
<!-- Generator: Adobe Illustrator 19.0.0, SVG Export Plug-In . SVG Version: 6.00 Build 0)  -->
<svg version="1.1" id="Layer_1" xmlns="http://www.w3.org/2000/svg" xmlns:xlink="http://www.w3.org/1999/xlink" x="0px" y="0px"
	 viewBox="0 0 511.999 511.999" style="enable-background:new 0 0 511.999 511.999;" xml:space="preserve">
<path style="fill:#515262;" d="M264.98,11.064c-5.551-3.386-12.412-3.386-17.963,0C204.511,36.995,25.591,154.132,25.591,288.613
	c0,69.894,56.57,126.553,126.353,126.553c22.84,0,44.247-6.086,62.722-16.714c5.297-3.047,11.491,2.341,9.413,8.13
	c-9.856,27.457-23.813,52.926-41.144,75.639c-6.619,8.674-0.262,21.254,10.579,21.254h126.307c10.848,0,17.189-12.583,10.566-21.263
	c-17.132-22.456-30.965-47.605-40.8-74.705c-2.089-5.757,4.017-11.153,9.332-8.193c18.108,10.087,38.938,15.852,61.135,15.852
	c69.783,0,126.353-56.659,126.353-126.553C486.407,154.132,307.487,36.995,264.98,11.064z"/>
<g>
	<path style="fill:#464655;" d="M203.818,403.94C61.859,325.336,195.197,89.594,257.242,8.696
		c-3.514-0.259-7.075,0.447-10.224,2.369C204.511,36.995,25.591,154.132,25.591,288.612c0,69.894,56.57,126.553,126.353,126.553
		C170.452,415.165,187.989,411.112,203.818,403.94z"/>
	<path style="fill:#464655;" d="M232.183,484.992c8.171-67.92,7.815-87.245-13.087-87.245c3.665,0.746,6.481,4.661,4.983,8.833
		c-9.856,27.458-23.813,52.927-41.144,75.64c-6.619,8.674-0.262,21.254,10.579,21.254h47.767
		C231.746,503.475,231.367,491.777,232.183,484.992z"/>
</g>
<g>
	<path style="fill:#2D2B29;" d="M458.432,177.339c-19.632-30.293-46.932-61.046-81.141-91.404
		C319.323,34.491,260.494,1.348,259.906,1.019c-2.427-1.358-5.387-1.358-7.813,0c-0.588,0.329-59.417,33.473-117.385,84.916
		c-34.209,30.358-61.509,61.111-81.141,91.404c-24.903,38.427-37.531,76.295-37.531,112.552C16.035,363.839,76.688,424,151.241,424
		c22.642,0,44.335-5.431,63.821-15.859c-12.658,33.402-31.943,64.312-56.514,90.371c-2.19,2.323-2.79,5.727-1.524,8.658
		s4.152,4.83,7.345,4.83h184.599c3.193,0,6.08-1.898,7.345-4.83s0.666-6.335-1.524-8.658
		c-24.354-25.829-43.533-56.458-56.196-89.543C317.684,418.852,338.814,424,360.757,424c74.553,0,135.206-60.161,135.206-134.109
		C495.963,253.633,483.335,215.766,458.432,177.339z M360.757,408c-26.242,0-51.164-8.345-72.07-24.133
		c-2.751-2.077-6.523-2.158-9.362-0.203c-2.838,1.957-4.104,5.512-3.141,8.822c10.982,37.751,29.87,73.208,55.028,103.514H182.126
		c25.457-30.661,44.477-66.569,55.407-104.818c0.952-3.331-0.349-6.896-3.222-8.833c-2.872-1.936-6.666-1.802-9.396,0.332
		C203.724,399.245,178.248,408,151.241,408c-65.73,0-119.206-52.983-119.206-118.109c0-75.506,61.491-145.977,113.076-191.797
		C193.297,55.29,242.095,25.434,256,17.244c13.877,8.17,62.501,37.91,110.671,80.658c51.683,45.866,113.292,116.405,113.292,191.989
		C479.963,355.017,426.487,408,360.757,408z"/>
	<path style="fill:#2D2B29;" d="M261.508,424.255c-4.079,1.699-6.008,6.382-4.31,10.461c5.919,14.21,12.938,28.136,20.861,41.39
		c1.498,2.505,4.152,3.895,6.874,3.895c1.396,0,2.812-0.366,4.097-1.134c3.792-2.268,5.029-7.18,2.761-10.972
		c-7.53-12.594-14.2-25.827-19.823-39.33C270.27,424.486,265.585,422.557,261.508,424.255z"/>
	<path style="fill:#2D2B29;" d="M288.58,56.903c-3.635-2.513-8.617-1.604-11.13,2.03c-2.513,3.633-1.604,8.616,2.03,11.129
		c21.435,14.823,53.411,38.759,84.021,68.61c1.556,1.517,3.571,2.272,5.585,2.272c2.081,0,4.16-0.807,5.728-2.415
		c3.084-3.163,3.021-8.228-0.142-11.313C343.265,96.589,310.519,72.074,288.58,56.903z"/>
</g>
<g>
</g>
<g>
</g>
<g>
</g>
<g>
</g>
<g>
</g>
<g>
</g>
<g>
</g>
<g>
</g>
<g>
</g>
<g>
</g>
<g>
</g>
<g>
</g>
<g>
</g>
<g>
</g>
<g>
</g>
</svg>
