<?xml version="1.0" encoding="iso-8859-1"?>
<!-- Generator: Adobe Illustrator 19.0.0, SVG Export Plug-In . SVG Version: 6.00 Build 0)  -->
<svg version="1.1" id="Layer_1" xmlns="http://www.w3.org/2000/svg" xmlns:xlink="http://www.w3.org/1999/xlink" x="0px" y="0px"
	 viewBox="0 0 512 512" style="enable-background:new 0 0 512 512;" xml:space="preserve">
<circle style="fill:#FF6464;" cx="256" cy="256" r="232"/>
<circle style="fill:#EFF2FA;" cx="256" cy="256" r="153"/>
<path style="fill:#FF6464;" d="M96.629,163.987l-55.433-32.004C20.087,168.465,8,210.82,8,256h64
	C72,222.479,80.968,191.055,96.629,163.987z"/>
<path style="fill:#EFF2FA;" d="M163.987,96.629l-32.004-55.434C94.35,62.971,62.971,94.35,41.196,131.983l55.433,32.004
	C112.785,136.065,136.065,112.785,163.987,96.629z"/>
<path style="fill:#FF6464;" d="M256,72V8c-45.18,0-87.535,12.087-124.017,33.196l32.004,55.434C191.055,80.969,222.479,72,256,72z"
	/>
<path style="fill:#EFF2FA;" d="M440,256h64c0-45.18-12.087-87.535-33.196-124.017l-55.433,32.004
	C431.032,191.055,440,222.479,440,256z"/>
<path style="fill:#FF6464;" d="M415.371,163.987l55.433-32.004c-21.774-37.633-53.153-69.012-90.787-90.787l-32.004,55.433
	C375.934,112.785,399.215,136.065,415.371,163.987z"/>
<g>
	<path style="fill:#EFF2FA;" d="M348.013,96.629l32.004-55.433C343.535,20.088,301.18,8,256,8v64
		C289.521,72,320.945,80.969,348.013,96.629z"/>
	<path style="fill:#EFF2FA;" d="M72,256H8c0,45.18,12.087,87.535,33.196,124.018l55.433-32.005C80.968,320.945,72,289.521,72,256z"
		/>
	<path style="fill:#EFF2FA;" d="M348.013,415.371l32.004,55.433c37.633-21.774,69.012-53.153,90.787-90.786l-55.433-32.005
		C399.215,375.935,375.934,399.215,348.013,415.371z"/>
</g>
<g>
	<path style="fill:#FF6464;" d="M96.629,348.013l-55.433,32.005c21.774,37.633,53.153,69.012,90.787,90.786l32.004-55.433
		C136.066,399.215,112.785,375.935,96.629,348.013z"/>
	<path style="fill:#FF6464;" d="M440,256c0,33.521-8.968,64.945-24.629,92.013l55.433,32.005C491.913,343.535,504,301.18,504,256
		H440z"/>
	<path style="fill:#FF6464;" d="M256,440v64c45.18,0,87.535-12.088,124.017-33.196l-32.004-55.433
		C320.945,431.032,289.521,440,256,440z"/>
</g>
<g>
	<path style="fill:#EFF2FA;" d="M163.987,415.371l-32.004,55.433C168.465,491.913,210.82,504,256,504v-64
		C222.479,440,191.055,431.032,163.987,415.371z"/>
	<path style="fill:#EFF2FA;" d="M397.278,197.661c-5.033-12.173-11.841-23.87-20.236-34.766l-3.429-4.452l23.043-13.303l2.617,3.483
		c8.851,11.781,16.1,24.182,21.544,36.859l1.724,4.015l-23.12,13.349L397.278,197.661z"/>
	<path style="fill:#EFF2FA;" d="M395.342,151.578l-14.404,8.315c8.429,10.941,15.532,22.942,20.885,35.889l14.477-8.358
		C410.782,174.575,403.64,162.622,395.342,151.578z"/>
	<path style="fill:#EFF2FA;" d="M349.105,134.958c-10.896-8.396-22.593-15.203-34.766-20.236l-5.185-2.144l13.348-23.121
		l4.015,1.725c12.677,5.444,25.078,12.693,36.859,21.545l3.483,2.617l-13.303,23.043L349.105,134.958z"/>
	<path style="fill:#EFF2FA;" d="M316.218,110.177c12.946,5.353,24.947,12.456,35.888,20.884l8.315-14.403
		c-11.044-8.298-22.997-15.439-35.846-20.958L316.218,110.177z"/>
	<path style="fill:#EFF2FA;" d="M276.119,104.613c-7.658-1.009-14.05-1.479-20.119-1.479s-12.461,0.47-20.119,1.479l-5.56,0.733
		v-26.75l4.335-0.517c7.835-0.936,14.816-1.39,21.344-1.39s13.509,0.454,21.344,1.39l4.335,0.517v26.75L276.119,104.613z"/>
	<path style="fill:#EFF2FA;" d="M235.239,82.962v16.775c6.811-0.897,13.706-1.521,20.761-1.521c7.055,0,13.951,0.624,20.761,1.521
		V82.962c-6.821-0.814-13.724-1.354-20.761-1.354S242.061,82.147,235.239,82.962z"/>
	<path style="fill:#EFF2FA;" d="M406.654,281.679l0.733-5.561c1.009-7.657,1.479-14.05,1.479-20.118s-0.47-12.461-1.479-20.118
		l-0.733-5.561h26.75l0.518,4.335c0.935,7.835,1.389,14.816,1.389,21.344c0,6.529-0.455,13.511-1.39,21.344l-0.518,4.335H406.654z"
		/>
	<path style="fill:#EFF2FA;" d="M413.784,256c0,7.056-0.624,13.951-1.521,20.761h16.775c0.815-6.821,1.355-13.724,1.355-20.761
		s-0.54-13.939-1.354-20.761h-16.775C413.16,242.049,413.784,248.944,413.784,256z"/>
	<path style="fill:#EFF2FA;" d="M78.597,281.679l-0.518-4.335c-0.935-7.833-1.39-14.814-1.39-21.344
		c0-6.527,0.454-13.509,1.389-21.344l0.517-4.335h26.75l-0.733,5.561c-1.009,7.657-1.479,14.05-1.479,20.118
		s0.47,12.461,1.479,20.118l0.733,5.561L78.597,281.679L78.597,281.679z"/>
	<path style="fill:#EFF2FA;" d="M98.216,256c0-7.056,0.624-13.951,1.521-20.761H82.962c-0.814,6.822-1.354,13.725-1.354,20.761
		c0,7.037,0.54,13.939,1.355,20.761h16.775C98.84,269.951,98.216,263.056,98.216,256z"/>
	<path style="fill:#EFF2FA;" d="M145.141,115.344l3.483-2.617c11.781-8.852,24.182-16.101,36.859-21.545l4.015-1.725l13.348,23.121
		l-5.185,2.144c-12.173,5.033-23.87,11.841-34.766,20.236l-4.451,3.429L145.141,115.344z"/>
	<path style="fill:#EFF2FA;" d="M159.894,131.062c10.941-8.429,22.942-15.532,35.888-20.884L187.424,95.7
		c-12.849,5.519-24.802,12.66-35.846,20.958L159.894,131.062z"/>
	<path style="fill:#EFF2FA;" d="M373.614,353.556l3.429-4.451c8.395-10.896,15.203-22.592,20.236-34.766l2.144-5.186l23.12,13.349
		l-1.724,4.015c-5.443,12.675-12.691,25.076-21.544,36.859l-2.617,3.483L373.614,353.556z"/>
	<path style="fill:#EFF2FA;" d="M416.3,324.576l-14.477-8.358c-5.353,12.946-12.455,24.947-20.884,35.888l14.404,8.316
		C403.64,349.378,410.782,337.425,416.3,324.576z"/>
	<path style="fill:#EFF2FA;" d="M256,435.311c-6.527,0-13.509-0.454-21.344-1.389l-4.335-0.518v-26.75l5.56,0.733
		c7.658,1.009,14.05,1.479,20.119,1.479s12.461-0.47,20.119-1.479l5.56-0.733v26.75l-4.335,0.518
		C269.509,434.856,262.527,435.311,256,435.311z"/>
	<path style="fill:#EFF2FA;" d="M276.761,429.039v-16.776c-6.81,0.897-13.705,1.521-20.761,1.521s-13.951-0.624-20.761-1.521v16.776
		c6.822,0.814,13.725,1.354,20.761,1.354S269.939,429.853,276.761,429.039z"/>
	<path style="fill:#EFF2FA;" d="M309.154,399.422l5.185-2.144c12.173-5.033,23.87-11.842,34.766-20.236l4.451-3.429l13.303,23.042
		l-3.483,2.618c-11.781,8.852-24.183,16.101-36.859,21.545l-4.015,1.725L309.154,399.422z"/>
	<path style="fill:#EFF2FA;" d="M352.106,380.938c-10.941,8.429-22.942,15.532-35.888,20.884l8.358,14.477
		c12.849-5.518,24.802-12.66,35.846-20.958L352.106,380.938z"/>
	<path style="fill:#EFF2FA;" d="M185.483,420.818c-12.676-5.444-25.078-12.693-36.859-21.545l-3.483-2.618l13.303-23.042
		l4.451,3.429c10.896,8.394,22.593,15.203,34.766,20.236l5.185,2.144l-13.348,23.121L185.483,420.818z"/>
	<path style="fill:#EFF2FA;" d="M195.782,401.823c-12.946-5.352-24.947-12.456-35.888-20.884l-8.315,14.403
		c11.044,8.298,22.997,15.44,35.846,20.958L195.782,401.823z"/>
	<path style="fill:#EFF2FA;" d="M112.726,363.375c-8.853-11.783-16.102-24.184-21.544-36.859l-1.724-4.015l23.12-13.349l2.144,5.186
		c5.033,12.173,11.841,23.87,20.236,34.766l3.429,4.451l-23.042,13.303L112.726,363.375z"/>
	<path style="fill:#EFF2FA;" d="M131.062,352.106c-8.429-10.941-15.532-22.942-20.884-35.888L95.7,324.576
		c5.518,12.849,12.66,24.802,20.958,35.846L131.062,352.106z"/>
	<path style="fill:#EFF2FA;" d="M89.458,189.498l1.724-4.015c5.444-12.677,12.693-25.078,21.544-36.859l2.618-3.483l23.043,13.303
		l-3.429,4.452c-8.395,10.896-15.203,22.592-20.236,34.766l-2.144,5.186L89.458,189.498z"/>
	<path style="fill:#EFF2FA;" d="M95.7,187.424l14.477,8.358c5.353-12.946,12.456-24.947,20.885-35.889l-14.404-8.315
		C108.36,162.622,101.218,174.575,95.7,187.424z"/>
</g>
<path style="fill:#FF6464;" d="M154,232.596c0-30.544,25.175-55.305,56.231-55.305c15.392,0,29.328,6.091,39.478,15.95
	c3.763,3.655,9.897,3.655,13.66,0c10.149-9.859,24.085-15.95,39.478-15.95c31.055,0,56.231,24.761,56.231,55.305l0,0
	c0,57.12-75.217,109.083-96.808,122.822c-3.491,2.221-7.971,2.221-11.461,0C229.217,341.679,154,289.716,154,232.596"/>
<g>
	<path style="fill:#2D2B29;" d="M437.02,74.98C388.667,26.628,324.38,0,256,0S123.333,26.628,74.98,74.98S0,187.62,0,256
		s26.628,132.668,74.98,181.02C123.333,485.372,187.62,512,256,512s132.667-26.628,181.02-74.98C485.372,388.668,512,324.38,512,256
		S485.372,123.333,437.02,74.98z M467.689,368.981L426.1,344.97c12.809-24.39,20.521-51.852,21.721-80.97h48.031
		C494.606,301.847,484.559,337.501,467.689,368.981z M248,447.821v48.032c-37.847-1.247-73.501-11.293-104.981-28.163l24.012-41.59
		C191.42,438.908,218.882,446.621,248,447.821z M264,447.821c29.118-1.2,56.58-8.913,80.969-21.721l24.012,41.59
		c-31.48,16.87-67.135,26.917-104.981,28.163V447.821z M256,432c-97.047,0-176-78.953-176-176S158.953,80,256,80s176,78.953,176,176
		S353.047,432,256,432z M16.148,264h48.031c1.2,29.118,8.913,56.58,21.721,80.97l-41.59,24.012
		C27.441,337.501,17.394,301.847,16.148,264z M44.311,143.019L85.9,167.03C73.092,191.42,65.379,218.882,64.179,248H16.148
		C17.394,210.153,27.441,174.499,44.311,143.019z M264,64.179V16.147c37.847,1.246,73.501,11.293,104.981,28.163L344.969,85.9
		C320.58,73.092,293.118,65.379,264,64.179z M248,64.179c-29.118,1.2-56.58,8.913-80.969,21.721l-24.012-41.59
		C174.499,27.44,210.154,17.393,248,16.147L248,64.179L248,64.179z M447.821,248c-1.2-29.118-8.913-56.58-21.721-80.97l41.59-24.012
		c16.87,31.48,26.917,67.135,28.163,104.981L447.821,248L447.821,248z M459.663,129.178l-41.581,24.007
		c-15.168-23.827-35.44-44.099-59.266-59.267l24.006-41.581C413.904,71.762,440.238,98.096,459.663,129.178z M129.178,52.337
		l24.007,41.581c-23.827,15.168-44.099,35.439-59.267,59.267l-41.581-24.007C71.762,98.096,98.096,71.762,129.178,52.337z
		 M52.337,382.822l41.581-24.007c15.168,23.827,35.44,44.099,59.267,59.267l-24.007,41.581
		C98.096,440.238,71.762,413.904,52.337,382.822z M382.822,459.663l-24.006-41.581c23.826-15.168,44.098-35.439,59.266-59.267
		l41.581,24.007C440.238,413.904,413.904,440.238,382.822,459.663z"/>
	<path style="fill:#2D2B29;" d="M362.101,158.641c1.578,1.719,3.733,2.59,5.895,2.59c1.933,0,3.872-0.697,5.408-2.106
		c3.255-2.988,3.471-8.049,0.483-11.304c-3.086-3.361-6.354-6.629-9.714-9.713c-3.254-2.987-8.315-2.772-11.303,0.484
		c-2.988,3.255-2.771,8.315,0.484,11.303C356.379,152.671,359.322,155.614,362.101,158.641z"/>
	<path style="fill:#2D2B29;" d="M112,256c0-79.402,64.598-144,144-144c23.799,0,47.377,5.925,68.187,17.134
		c3.89,2.094,8.742,0.641,10.837-3.249c2.095-3.891,0.64-8.742-3.25-10.838C308.641,102.586,282.439,96,256,96
		c-88.224,0-160,71.776-160,160c0,36.744,12.766,72.633,35.947,101.056c1.582,1.939,3.883,2.944,6.205,2.944
		c1.777,0,3.566-0.59,5.051-1.801c3.424-2.792,3.936-7.832,1.144-11.256C123.487,321.368,112,289.07,112,256z"/>
	<path style="fill:#2D2B29;" d="M396.937,180.196c-2.096-3.889-6.947-5.343-10.838-3.247c-3.889,2.096-5.343,6.947-3.247,10.837
		C394.07,208.602,400,232.19,400,256c0,79.402-64.598,144-144,144c-33.071,0-65.37-11.488-90.946-32.349
		c-3.423-2.791-8.463-2.28-11.256,1.144c-2.792,3.424-2.281,8.463,1.144,11.256C183.365,403.233,219.254,416,256,416
		c88.224,0,160-71.776,160-160C416,229.549,409.408,203.336,396.937,180.196z"/>
	<path style="fill:#2D2B29;" d="M256,188.018C243.855,175.337,226.979,168,209.164,168c-35.771,0-64.873,29.102-64.873,64.873
		c0,72.42,103.375,131.61,107.776,134.094c1.22,0.689,2.577,1.033,3.933,1.033c1.356,0,2.712-0.344,3.933-1.033
		c4.401-2.484,107.776-61.674,107.776-134.094c0-35.771-29.102-64.873-64.873-64.873C285.021,168,268.145,175.337,256,188.018z
		 M351.709,232.873c0,55.822-77.233,106.495-95.712,117.815c-18.487-11.31-95.706-61.915-95.706-117.815
		c0-26.948,21.924-48.873,48.873-48.873c16.058,0,31.104,7.919,40.25,21.184c1.493,2.166,3.956,3.458,6.586,3.458
		c2.63,0,5.093-1.292,6.586-3.458c9.146-13.265,24.193-21.184,40.25-21.184C329.785,184,351.709,205.925,351.709,232.873z"/>
</g>
<g>
</g>
<g>
</g>
<g>
</g>
<g>
</g>
<g>
</g>
<g>
</g>
<g>
</g>
<g>
</g>
<g>
</g>
<g>
</g>
<g>
</g>
<g>
</g>
<g>
</g>
<g>
</g>
<g>
</g>
</svg>
