<?xml version="1.0" encoding="iso-8859-1"?>
<!-- Generator: Adobe Illustrator 19.0.0, SVG Export Plug-In . SVG Version: 6.00 Build 0)  -->
<svg version="1.1" id="Layer_1" xmlns="http://www.w3.org/2000/svg" xmlns:xlink="http://www.w3.org/1999/xlink" x="0px" y="0px"
	 viewBox="0 0 512 512" style="enable-background:new 0 0 512 512;" xml:space="preserve">
<rect x="55.544" y="100.88" style="fill:#FFAD61;" width="400.92" height="400.92"/>
<rect x="205.218" y="100.88" style="fill:#FFE6B8;" width="101.564" height="400.92"/>
<path id="SVGCleanerId_0" style="fill:#FFE6B8;" d="M255.999,100.883h-81.615c-25.042,0-45.342-20.3-45.342-45.342l0,0
	c0-25.042,20.3-45.342,45.342-45.342h36.273c25.041-0.001,45.342,20.299,45.342,45.341V100.883z"/>
<g>
	<path id="SVGCleanerId_0_1_" style="fill:#FFE6B8;" d="M255.999,100.883h-81.615c-25.042,0-45.342-20.3-45.342-45.342l0,0
		c0-25.042,20.3-45.342,45.342-45.342h36.273c25.041-0.001,45.342,20.299,45.342,45.341V100.883z"/>
</g>
<g>
	<path style="fill:#FFE6B8;" d="M255.999,100.883h81.615c25.042,0,45.342-20.3,45.342-45.342l0,0
		c0-25.042-20.301-45.342-45.342-45.342h-36.273C276.3,10.199,255.999,30.5,255.999,55.541V100.883z"/>
	<rect x="55.544" y="250.554" style="fill:#FFE6B8;" width="400.92" height="101.564"/>
</g>
<g>
	<path style="fill:#4D3D36;" d="M45.342,501.801c0,5.633,4.566,10.199,10.199,10.199h400.917c5.633,0,10.199-4.566,10.199-10.199
		V100.883c0-5.633-4.566-10.199-10.199-10.199h-75.87c7.849-9.58,12.568-21.82,12.568-35.143C393.156,24.916,368.241,0,337.615,0
		h-36.273c-18.708,0-35.273,9.307-45.342,23.524C245.931,9.307,229.366,0,210.658,0h-36.273c-30.625,0-55.541,24.916-55.541,55.542
		c0,13.323,4.718,25.562,12.567,35.142h-75.87c-5.633,0-10.199,4.566-10.199,10.199V501.801z M446.258,111.083V240.36H316.982
		V111.083H446.258z M446.258,341.926H65.74v-81.168H446.26v81.168H446.258z M296.583,362.325v129.277h-81.167V362.325H296.583z
		 M296.583,111.083V240.36h-81.167V111.083H296.583z M301.341,20.398h36.273c19.377,0,35.142,15.765,35.142,35.143
		c0,19.377-15.765,35.142-35.142,35.142h-71.416V55.541C266.199,36.163,281.964,20.398,301.341,20.398z M139.241,55.541
		c0-19.377,15.765-35.142,35.142-35.142h36.273c19.378,0,35.143,15.765,35.143,35.142v35.143h-71.416
		C155.006,90.684,139.241,74.919,139.241,55.541z M195.017,111.083V240.36H65.74V111.083H195.017z M65.74,362.325h129.277v129.277
		H65.74V362.325z M316.982,491.602V362.325h129.277v129.277H316.982z"/>
	<path style="fill:#4D3D36;" d="M297.428,65.645h42.764c5.633,0,10.199-4.566,10.199-10.199s-4.566-10.199-10.199-10.199h-42.764
		c-5.633,0-10.199,4.566-10.199,10.199S291.795,65.645,297.428,65.645z"/>
	<path style="fill:#4D3D36;" d="M214.571,45.247h-42.764c-5.633,0-10.199,4.566-10.199,10.199s4.566,10.199,10.199,10.199h42.764
		c5.633,0,10.199-4.566,10.199-10.199S220.204,45.247,214.571,45.247z"/>
	<path style="fill:#4D3D36;" d="M224.382,328.414h4.743c5.633,0,10.199-4.566,10.199-10.199s-4.566-10.199-10.199-10.199h-4.743
		c-5.633,0-10.199,4.566-10.199,10.199S218.749,328.414,224.382,328.414z"/>
	<path style="fill:#4D3D36;" d="M92.812,328.414h97.912c5.633,0,10.199-4.566,10.199-10.199s-4.566-10.199-10.199-10.199H92.812
		c-5.633,0-10.199,4.566-10.199,10.199S87.179,328.414,92.812,328.414z"/>
</g>
<g>
</g>
<g>
</g>
<g>
</g>
<g>
</g>
<g>
</g>
<g>
</g>
<g>
</g>
<g>
</g>
<g>
</g>
<g>
</g>
<g>
</g>
<g>
</g>
<g>
</g>
<g>
</g>
<g>
</g>
</svg>
