<?xml version="1.0" encoding="iso-8859-1"?>
<!-- Generator: Adobe Illustrator 19.0.0, SVG Export Plug-In . SVG Version: 6.00 Build 0)  -->
<svg version="1.1" id="Layer_1" xmlns="http://www.w3.org/2000/svg" xmlns:xlink="http://www.w3.org/1999/xlink" x="0px" y="0px"
	 viewBox="0 0 512 512" style="enable-background:new 0 0 512 512;" xml:space="preserve">
<g>
	<rect x="94.749" y="359.353" style="fill:#BDF3FF;" width="189.742" height="26.053"/>
	<rect x="11.034" y="359.353" style="fill:#BDF3FF;" width="40.279" height="26.053"/>
</g>
<g>
	<rect x="112.735" y="90.973" style="fill:#FF5240;" width="73.06" height="37.063"/>
	<rect x="32.409" y="396.441" style="fill:#FF5240;" width="18.904" height="73.542"/>
	<rect x="233.377" y="90.973" style="fill:#FF5240;" width="164.633" height="37.063"/>
</g>
<g>
	<rect x="62.348" y="359.353" style="fill:#E1B658;" width="21.367" height="110.626"/>
	<rect x="196.817" y="90.973" style="fill:#E1B658;" width="25.524" height="257.346"/>
</g>
<g>
	<rect x="131.971" y="139.083" style="fill:#129A58;" width="53.813" height="209.236"/>
	<path style="fill:#129A58;" d="M359.07,258.117c-2.041-1.262-7.034-4.005-9.324-2.288c-2.804,2.105-3.857,10.286-2.125,16.517
		c2.338,8.422,7.865,9.072,15.416,9.072h14.538C375.336,274.918,370.46,265.157,359.07,258.117z"/>
</g>
<rect x="378.455" y="292.448" style="fill:#E1B658;" width="12.921" height="177.531"/>
<rect x="402.411" y="342.373" style="fill:#BDF3FF;" width="79.367" height="127.606"/>
<rect x="402.411" y="292.448" style="fill:#EFD18D;" width="98.549" height="38.885"/>
<path style="fill:#129A58;" d="M314.353,336.854v-49.92c0-3.047,2.47-5.517,5.517-5.517h19.606
	c-0.988-1.748-1.835-3.766-2.489-6.118c-2.106-7.578-2.305-21.961,6.131-28.295c3.906-2.934,10.85-5.015,21.752,1.726
	c5.426,3.354,10.061,7.456,13.9,12.265V139.081H233.38v209.238h56.626c3.047,0,5.517,2.47,5.517,5.517v37.088
	c0,3.047-2.47,5.517-5.517,5.517h-15.86v73.542h59.393V342.371h-13.668C316.824,342.371,314.353,339.901,314.353,336.854z"/>
<rect x="325.392" y="292.448" style="fill:#EFD18D;" width="42.029" height="38.885"/>
<rect x="94.749" y="396.441" style="fill:#FF5240;" width="168.36" height="73.542"/>
<rect x="344.579" y="342.373" style="fill:#BDF3FF;" width="22.85" height="127.606"/>
<path style="fill:#4F413B;" d="M506.483,281.416h-76.124c0.988-1.75,1.838-3.766,2.491-6.118c2.105-7.578,2.301-21.962-6.133-28.295
	c-3.906-2.934-10.853-5.013-21.756,1.726c-6.035,3.731-11.087,8.391-15.156,13.923V139.08h13.726c3.047,0,5.517-2.47,5.517-5.517
	V85.458c0-3.047-2.47-5.517-5.517-5.517H266.278c1.944-2.706,3.585-6.075,4.752-10.277c2.844-10.244,2.418-27.998-7.441-35.401
	c-4.712-3.536-13.16-5.997-26.684,2.364c-12.271,7.586-21.421,18.131-27.325,31.452c-5.907-13.322-15.057-23.867-27.327-31.45
	c-13.52-8.36-21.971-5.901-26.68-2.365c-9.86,7.404-10.288,25.158-7.442,35.402c1.168,4.204,2.813,7.568,4.758,10.277h-45.676
	c-3.047,0-5.517,2.47-5.517,5.517v48.104c0,3.047,2.47,5.517,5.517,5.517h13.724v209.238h-5.724c0.759-1.47,1.428-3.113,1.953-5.002
	c1.952-7.028,2.114-20.383-5.765-26.297c-3.681-2.762-10.201-4.739-20.371,1.547c-7.779,4.809-13.793,11.282-18.002,19.31
	c-4.209-8.028-10.224-14.502-18.004-19.31c-10.165-6.285-16.685-4.31-20.367-1.548c-7.879,5.916-7.718,19.27-5.765,26.297
	c0.524,1.883,1.181,3.538,1.937,5.003H5.517c-3.047,0-5.517,2.471-5.517,5.517v37.088c0,3.047,2.47,5.517,5.517,5.517h15.858v79.059
	c0,3.047,2.47,5.517,5.517,5.517h460.406c3.047,0,5.517-2.47,5.517-5.517V342.371h13.668c3.047,0,5.517-2.47,5.517-5.517v-49.92
	C512,283.887,509.53,281.416,506.483,281.416z M398.014,90.975v37.069H233.38V90.975H398.014z M242.707,46.014
	c4.541-2.808,10.702-5.596,14.255-2.925c4.659,3.498,5.672,15.571,3.435,23.623c-3.405,12.257-11.614,13.23-21.993,13.23h-21.571
	C219.476,71.3,225.832,56.444,242.707,46.014z M222.345,90.975v257.342h-25.524V90.975H222.345z M162.199,43.087
	c3.556-2.667,9.711,0.119,14.251,2.927c16.873,10.43,23.233,25.287,25.878,33.927H180.76c-10.381,0-18.592-0.973-21.995-13.23
	C156.526,58.659,157.54,46.586,162.199,43.087z M112.731,128.046V90.975h73.055v37.069h-73.055V128.046z M185.786,139.08v209.238
	h-53.813V139.08H185.786z M284.488,359.352v26.053H94.749v-26.053H284.488z M51.314,469.982H32.409V396.44h18.904V469.982z
	 M51.314,385.405H11.034v-26.053h40.279V385.405z M39.526,340.361c-1.503-5.41-0.617-12.739,1.758-14.52
	c1.279-0.961,4.247-0.173,7.939,2.11c9.893,6.114,14.326,14.526,16.438,20.367H53.099C46.227,348.318,41.569,347.716,39.526,340.361
	z M83.714,469.982H62.348V359.352h21.366V469.982z M80.4,348.318c2.112-5.843,6.547-14.254,16.434-20.367
	c3.692-2.282,6.661-3.072,7.942-2.109c2.375,1.783,3.261,9.111,1.758,14.52c-2.044,7.355-6.699,7.956-13.57,7.956H80.4z
	 M263.111,469.982H94.749V396.44h168.363V469.982z M333.539,469.982h-59.393V396.44h15.86c3.047,0,5.517-2.47,5.517-5.517v-37.088
	c0-3.047-2.47-5.517-5.517-5.517H233.38V139.08h145.391v121.915c-3.839-4.81-8.473-8.911-13.9-12.265
	c-10.903-6.741-17.846-4.66-21.752-1.726c-8.436,6.334-8.238,20.716-6.131,28.295c0.653,2.35,1.502,4.368,2.489,6.118h-19.606
	c-3.047,0-5.517,2.47-5.517,5.517v49.92c0,3.047,2.47,5.517,5.517,5.517h13.668V469.982z M367.423,469.982h-22.85v-127.61h22.85
	V469.982z M367.423,331.337h-42.035v-38.885h42.035V331.337z M363.036,281.416c-7.551,0-13.078-0.651-15.416-9.071
	c-1.732-6.231-0.679-14.411,2.125-16.517c2.29-1.718,7.283,1.026,9.324,2.288c11.39,7.041,16.267,16.803,18.506,23.301H363.036z
	 M391.378,469.982h-12.921V292.451h12.921V469.982z M410.764,258.117c2.041-1.262,7.04-4.005,9.328-2.288
	c2.804,2.105,3.857,10.286,2.126,16.517c-2.338,8.42-7.866,9.072-15.419,9.072h-14.537
	C394.503,274.921,399.383,265.153,410.764,258.117z M481.781,469.982h-79.367v-127.61h79.367V469.982z M500.966,331.337h-98.553
	v-38.885h98.553V331.337z"/>
<g>
</g>
<g>
</g>
<g>
</g>
<g>
</g>
<g>
</g>
<g>
</g>
<g>
</g>
<g>
</g>
<g>
</g>
<g>
</g>
<g>
</g>
<g>
</g>
<g>
</g>
<g>
</g>
<g>
</g>
</svg>
