<?xml version="1.0" encoding="iso-8859-1"?>
<!-- Generator: Adobe Illustrator 19.0.0, SVG Export Plug-In . SVG Version: 6.00 Build 0)  -->
<svg version="1.1" id="Layer_1" xmlns="http://www.w3.org/2000/svg" xmlns:xlink="http://www.w3.org/1999/xlink" x="0px" y="0px"
	 viewBox="0 0 289.88 289.88" style="enable-background:new 0 0 289.88 289.88;" xml:space="preserve">
<g>
	<g>
		<g id="XMLID_32_">
			<g>
				<path style="fill:#2D213F;" d="M273.326,56.198v59.966c0,4.573-3.736,8.277-8.373,8.277h-5.217v157.162
					c0,4.573-3.736,8.277-8.341,8.277H38.485c-4.605,0-8.341-3.704-8.341-8.277V124.441h-5.217c-4.638,0-8.373-3.704-8.373-8.277
					V56.198c0-4.573,3.736-8.277,8.373-8.277h21.288C47.149,21.352,69.209,0,96.229,0c26.473,0,48.147,20.45,49.918,46.215
					C147.951,20.45,169.625,0,196.066,0c27.052,0,49.113,21.352,50.015,47.921h18.872C269.59,47.921,273.326,51.625,273.326,56.198z
					 M256.612,107.888V64.443h-45.925v43.445H256.612z M243.053,273.326V124.441h-50.111v148.885
					C192.942,273.326,243.053,273.326,243.053,273.326z M162.766,47.921h66.633c-0.934-17.455-15.491-31.368-33.332-31.368
					C178.256,16.554,163.699,30.466,162.766,47.921z M194.005,107.888V64.443H93.782v43.445H194.005z M176.26,273.326V124.441
					h-64.733v148.885C111.527,273.326,176.26,273.326,176.26,273.326z M62.929,47.921h66.601
					c-0.902-17.455-15.459-31.368-33.3-31.368C78.42,16.554,63.831,30.466,62.929,47.921z M94.845,273.326V124.441H46.826v148.885
					H94.845z M77.099,107.888V64.443H33.268v43.445H77.099z"/>
				<rect x="210.687" y="64.443" style="fill:#C5CBCF;" width="45.925" height="43.445"/>
				<path style="fill:#EAEEEF;" d="M210.687,107.888h5.439v-27.79c0-5.684-1.488-11.017-4.074-15.655h-1.366v43.445H210.687z"/>
				<rect x="192.942" y="124.441" style="fill:#C5CBCF;" width="50.111" height="148.885"/>
				<rect x="93.782" y="64.443" style="fill:#F47C6D;" width="100.223" height="43.445"/>
				<rect x="111.527" y="124.441" style="fill:#EF685E;" width="64.733" height="148.885"/>
				<rect x="46.826" y="124.441" style="fill:#C5CBCF;" width="48.018" height="148.885"/>
				<rect x="33.268" y="64.443" style="fill:#C5CBCF;" width="43.831" height="43.445"/>
				<rect x="33.268" y="64.443" style="fill:#C5CBCF;" width="43.831" height="43.445"/>
				<path style="fill:#EAEEEF;" d="M77.099,64.443H40.247c-2.66,2.844-5.005,5.977-6.979,9.362v34.083h43.831V64.443z"/>
			</g>
		</g>
		<path style="fill:#EAEEEF;" d="M192.942,124.441V252.76c13.024-1.346,23.185-12.354,23.185-25.735V124.441H192.942z"/>
		<path style="fill:#EAEEEF;" d="M46.826,245.881c6.931,4.425,15.143,7.024,23.974,7.024h24.044V124.441H46.826V245.881z"/>
		<rect x="111.527" y="124.441" style="fill:#F47C6D;" width="64.733" height="128.46"/>
	</g>
</g>
<g>
</g>
<g>
</g>
<g>
</g>
<g>
</g>
<g>
</g>
<g>
</g>
<g>
</g>
<g>
</g>
<g>
</g>
<g>
</g>
<g>
</g>
<g>
</g>
<g>
</g>
<g>
</g>
<g>
</g>
</svg>
