<?xml version="1.0" encoding="iso-8859-1"?>
<!-- Generator: Adobe Illustrator 19.0.0, SVG Export Plug-In . SVG Version: 6.00 Build 0)  -->
<svg version="1.1" id="Layer_1" xmlns="http://www.w3.org/2000/svg" xmlns:xlink="http://www.w3.org/1999/xlink" x="0px" y="0px"
	 viewBox="0 0 512 512" style="enable-background:new 0 0 512 512;" xml:space="preserve">
<path style="fill:#F95428;" d="M493.359,274.641c0,28.522-5.031,55.874-14.261,81.211l-0.06-0.024l-72.512-26.387
	c6.238-17.096,9.628-35.556,9.628-54.8H493.359L493.359,274.641z"/>
<path style="fill:#F7B239;" d="M479.098,193.442c9.23,25.325,14.261,52.677,14.261,81.199h-77.205
	c0-19.244-3.39-37.704-9.628-54.788l72.512-26.387L479.098,193.442z"/>
<g>
	<path style="fill:#2BA5F7;" d="M479.038,355.828l0.06,0.024c-9.556,26.266-23.624,50.372-41.275,71.366l-59.132-49.624
		c11.896-14.165,21.392-30.429,27.834-48.152L479.038,355.828z"/>
	<path style="fill:#2BA5F7;" d="M437.823,122.076c17.651,20.993,31.719,45.1,41.275,71.366l-0.06,0.024l-72.512,26.387
		c-6.443-17.736-15.938-34-27.834-48.164L437.823,122.076z"/>
</g>
<g>
	<path style="fill:#F7B239;" d="M378.691,377.593l59.132,49.624c-17.736,21.126-39.103,39.116-63.125,53.015l-0.024-0.036
		l-38.585-66.829c12.15-7.034,23.298-15.612,33.155-25.47C372.538,384.603,375.687,381.165,378.691,377.593z"/>
	<path style="fill:#F7B239;" d="M369.244,161.384c3.294,3.294,6.443,6.732,9.447,10.304c11.896,14.165,21.392,30.428,27.834,48.164
		c6.238,17.084,9.628,35.544,9.628,54.788h-94.797c0-18.05-7.312-34.386-19.148-46.222L369.244,161.384z"/>
</g>
<g>
	<path style="fill:#F95428;" d="M374.698,69.049c24.022,13.899,45.389,31.888,63.125,53.027l-59.132,49.612
		c-3.004-3.571-6.153-7.01-9.447-10.304c-9.857-9.857-21.006-18.436-33.155-25.47l38.585-66.829L374.698,69.049z"/>
	<path style="fill:#F95428;" d="M374.674,480.196l0.024,0.036c-23.563,13.634-49.685,23.334-77.471,28.196l-0.012-0.036
		l-13.404-75.999c18.749-3.282,36.377-9.821,52.279-19.027L374.674,480.196z"/>
</g>
<path style="fill:#564C89;" d="M378.691,377.593c-3.004,3.571-6.153,7.01-9.447,10.304l-67.034-67.034
	c11.836-11.836,19.148-28.172,19.148-46.222h94.797c0,19.244-3.39,37.704-9.628,54.8
	C400.083,347.165,390.588,363.429,378.691,377.593z"/>
<path style="fill:#D64394;" d="M336.089,135.915c12.15,7.034,23.298,15.612,33.155,25.47l-67.034,67.034
	c-11.824-11.836-28.16-19.148-46.222-19.148v-94.797c9.495,0,18.786,0.82,27.822,2.413
	C302.56,120.17,320.187,126.709,336.089,135.915z"/>
<path style="fill:#F7B239;" d="M297.227,40.853c27.786,4.862,53.907,14.563,77.471,28.196l-0.024,0.036l-38.585,66.829
	c-15.902-9.206-33.529-15.745-52.279-19.027l13.404-75.999L297.227,40.853z"/>
<path style="fill:#2BA5F7;" d="M236.08,38.102h0.012h39.803c7.203,0.603,14.321,1.52,21.331,2.751l-0.012,0.036l-13.404,75.999
	c-9.037-1.593-18.327-2.413-27.822-2.413c-9.483,0-18.761,0.82-27.798,2.401l-13.417-75.987l-0.012-0.036
	C221.771,39.622,228.877,38.705,236.08,38.102z"/>
<path style="fill:#D64394;" d="M369.244,387.897c-9.857,9.857-21.006,18.436-33.155,25.47
	c-15.902,9.206-33.529,15.745-52.279,19.027c-9.037,1.593-18.327,2.413-27.822,2.413V340.01c18.062,0,34.398-7.312,46.222-19.148
	L369.244,387.897z"/>
<path style="fill:#564C89;" d="M142.744,161.384c9.857-9.869,21.006-18.448,33.155-25.47c15.902-9.206,33.541-15.757,52.291-19.039
	c9.037-1.581,18.315-2.401,27.798-2.401v94.796c-18.05,0-34.398,7.312-46.222,19.148L142.744,161.384z"/>
<path style="fill:#9AD14B;" d="M209.766,228.419c11.824-11.836,28.172-19.148,46.222-19.148c18.062,0,34.398,7.312,46.222,19.148
	c11.836,11.836,19.148,28.172,19.148,46.222s-7.312,34.386-19.148,46.222c-11.824,11.836-28.16,19.148-46.222,19.148
	c-18.05,0-34.398-7.312-46.222-19.148c-11.824-11.836-19.148-28.172-19.148-46.222C190.619,256.591,197.942,240.255,209.766,228.419
	z"/>
<path style="fill:#F7B239;" d="M175.899,413.367c-12.15-7.022-23.298-15.6-33.155-25.47l67.022-67.034
	c11.824,11.836,28.172,19.148,46.222,19.148v94.797c-9.483,0-18.761-0.82-27.798-2.401
	C209.44,429.124,191.801,422.573,175.899,413.367z"/>
<path style="fill:#2BA5F7;" d="M255.988,434.807c9.495,0,18.786-0.82,27.822-2.413l13.404,75.999l0.012,0.036
	C283.834,510.781,270.056,512,256,512c-14.056,0-27.835-1.219-41.227-3.571l0.012-0.036l13.404-75.987
	C237.227,433.986,246.505,434.807,255.988,434.807z"/>
<path style="fill:#F95428;" d="M214.773,40.889l13.417,75.987c-18.749,3.282-36.389,9.833-52.291,19.039l-38.585-66.829
	l-0.012-0.036c23.563-13.634,49.673-23.334,77.459-28.196L214.773,40.889z"/>
<path style="fill:#F7B239;" d="M175.899,413.367c15.902,9.206,33.541,15.757,52.291,19.039l-13.404,75.987l-0.012,0.036
	c-27.786-4.862-53.92-14.563-77.483-28.196l0.024-0.036L175.899,413.367z"/>
<path style="fill:#F95428;" d="M133.285,377.605c3.016,3.571,6.165,7.01,9.459,10.292c9.857,9.869,21.006,18.448,33.155,25.47
	l-38.585,66.829l-0.024,0.036c-24.022-13.899-45.377-31.888-63.125-53.015L133.285,377.605z"/>
<path style="fill:#D64394;" d="M105.45,219.853c6.443-17.736,15.938-34,27.847-48.176c3.004-3.571,6.153-7.01,9.447-10.292
	l67.022,67.034c-11.824,11.836-19.148,28.172-19.148,46.222H95.834h-0.012C95.822,255.397,99.212,236.937,105.45,219.853z"/>
<path style="fill:#F7B239;" d="M137.314,69.085l38.585,66.829c-12.15,7.022-23.298,15.6-33.155,25.47
	c-3.294,3.282-6.443,6.72-9.447,10.292l-59.132-49.6c17.748-21.138,39.103-39.128,63.137-53.027L137.314,69.085z"/>
<g>
	<path style="fill:#2BA5F7;" d="M74.165,122.076l59.132,49.6c-11.908,14.177-21.404,30.441-27.847,48.176l-72.5-26.387l-0.048-0.024
		C42.458,167.176,56.526,143.082,74.165,122.076z"/>
	<path style="fill:#2BA5F7;" d="M133.285,377.605l-59.12,49.612c-17.639-20.993-31.707-45.1-41.263-71.378l0.048-0.012l72.5-26.387
		C111.893,347.165,121.388,363.429,133.285,377.605z"/>
</g>
<path style="fill:#564C89;" d="M105.45,329.441c-6.238-17.096-9.628-35.556-9.628-54.8h0.012h94.784
	c0,18.05,7.324,34.386,19.148,46.222l-67.022,67.034c-3.294-3.282-6.443-6.72-9.459-10.292
	C121.388,363.429,111.893,347.165,105.45,329.441z"/>
<path style="fill:#F7B239;" d="M32.95,355.828l-0.048,0.012c-9.23-25.337-14.261-52.677-14.261-81.199h77.181
	c0,19.244,3.39,37.704,9.628,54.8L32.95,355.828z"/>
<path style="fill:#F95428;" d="M18.641,274.641c0-28.522,5.031-55.874,14.261-81.199l0.048,0.024l72.5,26.387
	c-6.238,17.084-9.628,35.544-9.628,54.788H18.641z"/>
<g>
	<path style="fill:#4D4D4D;" d="M255.988,443.856c-9.857,0-19.734-0.854-29.357-2.537c-19.506-3.413-38.1-10.183-55.266-20.121
		c-12.793-7.394-24.579-16.447-35.024-26.907c-3.376-3.363-6.736-7.017-9.969-10.847c-12.789-15.241-22.683-32.363-29.426-50.912
		c-6.748-18.495-10.172-37.977-10.172-57.891c0-19.92,3.424-39.398,10.177-57.891c6.738-18.552,16.638-35.679,29.417-50.894
		c3.208-3.814,6.568-7.473,9.989-10.883c10.43-10.444,22.217-19.497,35.015-26.893c17.159-9.933,35.753-16.703,55.259-20.118
		c19.285-3.375,39.592-3.363,58.752,0.014c19.503,3.413,38.092,10.179,55.242,20.108c12.792,7.404,24.573,16.456,35.019,26.902
		c3.442,3.442,6.798,7.102,9.974,10.878c12.776,15.212,22.671,32.335,29.414,50.9c6.748,18.48,10.172,37.958,10.172,57.878
		c0,19.914-3.424,39.395-10.177,57.902c-6.742,18.548-16.637,35.667-29.405,50.871c-3.177,3.778-6.533,7.437-9.978,10.883
		c-10.444,10.445-22.227,19.496-35.019,26.903c-17.148,9.927-35.738,16.693-55.253,20.109
		C275.777,442.998,265.887,443.856,255.988,443.856z M255.988,123.524c-8.817,0-17.645,0.763-26.239,2.265
		c-17.405,3.046-33.997,9.089-49.317,17.957c-11.434,6.608-21.959,14.693-31.286,24.033c-3.063,3.053-6.06,6.317-8.925,9.722
		c-11.409,13.582-20.247,28.872-26.266,45.441c-6.03,16.514-9.084,33.903-9.084,51.7c0,17.793,3.055,35.187,9.079,51.698
		c6.023,16.567,14.858,31.855,26.266,45.449c2.882,3.413,5.888,6.683,8.914,9.698c9.345,9.355,19.868,17.441,31.296,24.047
		c15.326,8.873,31.92,14.914,49.323,17.959c17.224,3.013,35.384,3.003,52.49-0.01c17.423-3.05,34.012-9.088,49.315-17.947
		c11.432-6.618,21.959-14.705,31.29-24.038c3.08-3.079,6.081-6.352,8.921-9.729c11.399-13.573,20.235-28.856,26.255-45.42
		c6.029-16.523,9.084-33.918,9.084-51.709c0-17.795-3.055-35.185-9.079-51.685c-6.024-16.582-14.858-31.868-26.264-45.447
		c-2.839-3.375-5.84-6.649-8.916-9.726c-9.334-9.332-19.861-17.42-31.29-24.036c-15.304-8.859-31.892-14.897-49.306-17.945
		C273.673,124.29,264.841,123.524,255.988,123.524z"/>
	<path style="fill:#4D4D4D;" d="M255.988,349.059c-19.891,0-38.58-7.742-52.624-21.801c-14.054-14.069-21.795-32.755-21.795-52.618
		s7.741-38.548,21.795-52.618c14.044-14.058,32.733-21.801,52.624-21.801c19.891,0,38.58,7.742,52.624,21.802
		c14.054,14.052,21.795,32.74,21.795,52.616s-7.741,38.564-21.798,52.62C294.566,341.317,275.879,349.059,255.988,349.059z
		 M255.988,218.32c-15.054,0-29.195,5.858-39.82,16.494c-10.64,10.651-16.5,24.795-16.5,39.826c0,15.031,5.86,29.176,16.5,39.826
		c10.626,10.635,24.766,16.493,39.82,16.493c15.053,0,29.194-5.858,39.819-16.493c10.642-10.642,16.5-24.784,16.5-39.826
		c0-15.042-5.859-29.185-16.497-39.824C285.182,224.178,271.04,218.32,255.988,218.32z"/>
</g>
<polygon style="fill:#9AD14B;" points="293.33,0 275.896,38.102 255.988,81.621 236.092,38.102 236.08,38.102 218.658,0 "/>
<g>
</g>
<g>
</g>
<g>
</g>
<g>
</g>
<g>
</g>
<g>
</g>
<g>
</g>
<g>
</g>
<g>
</g>
<g>
</g>
<g>
</g>
<g>
</g>
<g>
</g>
<g>
</g>
<g>
</g>
</svg>
