<?xml version="1.0" encoding="iso-8859-1"?>
<!-- Generator: Adobe Illustrator 19.0.0, SVG Export Plug-In . SVG Version: 6.00 Build 0)  -->
<svg version="1.1" id="Layer_1" xmlns="http://www.w3.org/2000/svg" xmlns:xlink="http://www.w3.org/1999/xlink" x="0px" y="0px"
	 viewBox="0 0 512 512" style="enable-background:new 0 0 512 512;" xml:space="preserve">
<polygon style="fill:#F95428;" points="291.723,300.637 291.723,343.93 253.712,283.067 291.723,214.029 291.723,257.333 "/>
<g>
	<rect x="378.114" y="300.637" style="fill:#4D4D4D;" width="43.204" height="43.293"/>
	<rect x="421.329" y="257.333" style="fill:#4D4D4D;" width="43.193" height="43.304"/>
	<rect x="378.114" y="214.029" style="fill:#4D4D4D;" width="43.204" height="43.304"/>
	<rect x="334.932" y="257.333" style="fill:#4D4D4D;" width="43.193" height="43.304"/>
	<rect x="291.717" y="300.637" style="fill:#4D4D4D;" width="43.204" height="43.293"/>
	<rect x="291.717" y="214.029" style="fill:#4D4D4D;" width="43.204" height="43.304"/>
</g>
<g>
	<rect x="421.329" y="300.637" style="fill:#F95428;" width="43.193" height="43.293"/>
	<rect x="421.329" y="214.029" style="fill:#F95428;" width="43.193" height="43.304"/>
	<rect x="378.114" y="257.333" style="fill:#F95428;" width="43.204" height="43.304"/>
	<rect x="334.932" y="300.637" style="fill:#F95428;" width="43.193" height="43.293"/>
	<rect x="334.932" y="214.029" style="fill:#F95428;" width="43.193" height="43.304"/>
	<rect x="291.717" y="257.333" style="fill:#F95428;" width="43.204" height="43.304"/>
</g>
<path style="fill:#F7B239;" d="M114.737,259.736c-0.211-1.212-0.323-2.458-0.323-3.737c0-3.926,1.045-7.607,2.891-10.765
	c2.502-4.348,6.494-7.729,11.276-9.464c2.291-0.845,4.771-1.301,7.362-1.301s5.071,0.456,7.373,1.301
	c4.782,1.735,8.763,5.127,11.276,9.464c1.835,3.158,2.88,6.839,2.88,10.765c0,1.279-0.111,2.536-0.322,3.748
	c-0.901,5.093-3.57,9.564-7.373,12.744c-3.748,3.147-8.574,5.049-13.834,5.049c-5.26,0-10.086-1.902-13.834-5.049
	C118.307,269.31,115.627,264.829,114.737,259.736z"/>
<path style="fill:#07930B;" d="M503.661,198.227v162.051c0,12.889-10.442,23.331-23.32,23.331H135.944
	c-71.083,0-128.589-58.117-127.588-129.423C9.324,184.17,67.452,127.588,137.468,128.4c39.056,0.467,73.897,18.46,96.995,46.496
	h245.878C493.218,174.896,503.661,185.338,503.661,198.227z M464.516,343.93v-43.293v-43.304v-43.304h-43.193h-43.204h-43.193
	h-43.204l-38.011,69.037l38.011,60.864h43.204h43.193h43.204H464.516z M229.892,255.999c0-51.889-42.058-93.948-93.948-93.948
	s-93.948,42.058-93.948,93.948s42.058,93.948,93.948,93.948S229.892,307.888,229.892,255.999z"/>
<path style="fill:#F7B239;" d="M135.944,162.051c51.889,0,93.948,42.058,93.948,93.948s-42.058,93.948-93.948,93.948
	s-93.948-42.058-93.948-93.948S84.055,162.051,135.944,162.051z M196.452,266.675c0.612-3.47,0.923-7.039,0.923-10.676
	c0-11.187-2.991-21.674-8.218-30.715c-7.173-12.4-18.56-22.063-32.206-27.023c-6.55-2.391-13.623-3.692-21.007-3.692
	c-7.384,0-14.457,1.301-21.007,3.692c-13.645,4.96-25.033,14.624-32.206,27.023c-5.227,9.041-8.218,19.528-8.218,30.715
	c0,3.636,0.311,7.206,0.923,10.676c2.547,14.524,10.187,27.29,21.018,36.387c10.676,8.963,24.443,14.368,39.49,14.368
	s28.814-5.405,39.49-14.368C186.265,293.965,193.905,281.198,196.452,266.675z"/>
<g>
	<path style="fill:#4D4D4D;" d="M135.944,277.54v39.89c-15.046,0-28.814-5.405-39.49-14.368l25.655-30.571
		C125.858,275.638,130.684,277.54,135.944,277.54z"/>
	<path style="fill:#4D4D4D;" d="M197.375,255.999c0,3.636-0.311,7.206-0.923,10.676h-0.011l-39.278-6.928h-0.011
		c0.211-1.212,0.322-2.469,0.322-3.748c0-3.926-1.045-7.607-2.88-10.765l34.552-19.951h0.011
		C194.383,234.325,197.375,244.812,197.375,255.999z"/>
	<path style="fill:#4D4D4D;" d="M156.951,198.26v0.011l-13.634,37.488v0.011c-2.302-0.845-4.782-1.301-7.373-1.301
		s-5.071,0.456-7.362,1.301l-13.645-37.499v-0.011c6.55-2.391,13.623-3.692,21.007-3.692
		C143.328,194.568,150.401,195.869,156.951,198.26z"/>
	<path style="fill:#4D4D4D;" d="M82.743,225.284l34.563,19.951c-1.846,3.158-2.891,6.839-2.891,10.765
		c0,1.279,0.111,2.524,0.323,3.737l-39.289,6.939h-0.011c-0.612-3.47-0.923-7.039-0.923-10.676c0-11.187,2.991-21.674,8.218-30.715
		L82.743,225.284L82.743,225.284z"/>
</g>
<path style="fill:#07930B;" d="M149.789,272.502l25.644,30.56c-10.676,8.963-24.443,14.368-39.49,14.368v-39.89
	c5.26,0,10.086-1.902,13.834-5.049L149.789,272.502z"/>
<g>
	<path style="fill:#F95428;" d="M196.441,266.675h0.011c-2.547,14.524-10.187,27.29-21.018,36.387l-25.644-30.56l-0.011-0.011
		c3.803-3.181,6.472-7.651,7.373-12.744h0.011L196.441,266.675z"/>
	<path style="fill:#F95428;" d="M189.157,225.284h-0.011l-34.552,19.951c-2.513-4.337-6.494-7.729-11.276-9.464v-0.011
		l13.634-37.488v-0.011C170.596,203.22,181.984,212.884,189.157,225.284z"/>
	<path style="fill:#F95428;" d="M114.937,198.271l13.645,37.499c-4.782,1.735-8.774,5.116-11.276,9.464l-34.563-19.951h-0.011
		c7.173-12.4,18.56-22.063,32.206-27.023C114.937,198.26,114.937,198.271,114.937,198.271z"/>
	<path style="fill:#F95428;" d="M122.11,272.491l-25.655,30.571c-10.832-9.097-18.471-21.863-21.018-36.387h0.011l39.289-6.939
		C115.627,264.829,118.307,269.31,122.11,272.491z"/>
</g>
<g>
	<path style="fill:#333333;" d="M135.943,186.227c-38.473,0-69.773,31.3-69.773,69.775s31.3,69.775,69.773,69.775
		c38.474,0,69.775-31.3,69.775-69.775S174.416,186.227,135.943,186.227z M189.036,256c0,0.298-0.018,0.593-0.022,0.89l-23.373-4.122
		c-0.143-1.322-0.375-2.618-0.686-3.884l20.559-11.869C187.781,242.914,189.036,249.312,189.036,256z M82.873,256.891
		c-0.004-0.298-0.022-0.592-0.022-0.891c0-6.689,1.256-13.087,3.523-18.987l20.559,11.869c-0.311,1.267-0.543,2.563-0.686,3.888
		L82.873,256.891z M122.749,256c0-7.275,5.918-13.194,13.192-13.194c7.275,0,13.194,5.918,13.194,13.194
		c0,7.275-5.918,13.194-13.194,13.194C128.669,269.195,122.749,263.275,122.749,256z M123.9,283.331
		c1.195,0.529,2.432,0.981,3.704,1.351v23.75c-6.84-1.084-13.25-3.477-18.963-6.917L123.9,283.331z M144.286,284.681
		c1.271-0.37,2.508-0.822,3.703-1.351l15.259,18.185c-5.713,3.441-12.122,5.834-18.962,6.918V284.681z M177.156,222.578
		l-20.559,11.869c-0.947-0.907-1.951-1.756-3.01-2.534l8.121-22.313C167.65,212.914,172.893,217.331,177.156,222.578z
		 M146.038,203.882l-8.123,22.316c-0.653-0.043-1.31-0.072-1.974-0.072c-0.663,0-1.318,0.029-1.969,0.072l-8.123-22.317
		c3.269-0.632,6.641-0.974,10.092-0.974C139.395,202.908,142.768,203.25,146.038,203.882z M110.18,209.599l8.121,22.313
		c-1.06,0.778-2.064,1.626-3.011,2.534l-20.56-11.869C98.994,217.329,104.237,212.912,110.18,209.599z M85.766,273.319l23.385-4.124
		c0.585,1.183,1.243,2.323,1.974,3.412l-15.246,18.17C91.469,285.707,88.008,279.797,85.766,273.319z M176.011,290.776
		l-15.246-18.17c0.73-1.088,1.388-2.227,1.972-3.41l23.383,4.124C183.879,279.796,180.418,285.705,176.011,290.776z"/>
	<path style="fill:#333333;" d="M135.943,153.712c-56.402,0-102.288,45.886-102.288,102.288s45.887,102.288,102.288,102.288
		S238.231,312.402,238.231,256S192.344,153.712,135.943,153.712z M135.943,341.608c-47.204,0-85.607-38.403-85.607-85.607
		s38.403-85.607,85.607-85.607s85.607,38.403,85.607,85.607S183.147,341.608,135.943,341.608z"/>
	<path style="fill:#333333;" d="M480.336,166.561H238.322c-25.473-29.15-61.97-46.042-100.759-46.496
		c-0.538-0.007-1.074-0.009-1.611-0.009c-74.076,0-134.906,59.787-135.938,134.011c-0.51,36.694,13.387,71.278,39.133,97.385
		c25.751,26.11,60.127,40.492,96.797,40.492h344.394c17.458,0,31.663-14.203,31.663-31.663V198.224
		C511.999,180.765,497.795,166.561,480.336,166.561z M495.318,360.281c0,8.262-6.72,14.982-14.982,14.982H135.943
		c-32.17,0-62.328-12.615-84.919-35.523c-22.587-22.903-34.779-53.246-34.332-85.44c0.906-65.118,54.268-117.562,119.263-117.562
		c0.467,0,0.945,0.002,1.413,0.008c35.193,0.411,68.237,16.252,90.658,43.46c1.585,1.923,3.946,3.036,6.437,3.036h245.874
		c8.262,0,14.982,6.72,14.982,14.982v162.058H495.318z"/>
	<path style="fill:#333333;" d="M464.516,205.689H291.725c-3.148,0-5.886,1.745-7.306,4.318h-0.001l-0.011,0.021
		c-0.009,0.017-0.018,0.032-0.027,0.048l-37.976,68.974c-1.458,2.648-1.368,5.877,0.232,8.441l38.014,60.865l0.007-0.004
		c1.473,2.355,4.083,3.927,7.067,3.927h172.791c4.607,0,8.341-3.734,8.341-8.341V214.029
		C472.856,209.423,469.122,205.689,464.516,205.689z M456.175,248.991h-26.517V222.37h26.517V248.991z M300.065,265.672h26.517
		v26.621h-26.517V265.672z M343.263,265.672h26.517v26.621h-26.517V265.672z M369.78,248.991h-26.517V222.37h26.517V248.991z
		 M386.461,222.37h26.516v26.621h-26.516V222.37z M369.78,308.975v26.621h-26.517v-26.621H369.78z M386.461,308.975h26.516v26.621
		h-26.516V308.975z M386.461,292.294v-26.621h26.516v26.621H386.461z M429.658,265.672h26.517v26.621h-26.517V265.672z
		 M326.582,222.37v26.621h-26.517V222.37H326.582z M283.384,246.471v68.366l-20.005-32.031L283.384,246.471z M300.065,308.975
		h26.517v26.621h-26.517V308.975z M429.658,335.595v-26.621h26.517v26.621H429.658z"/>
	<circle style="fill:#333333;" cx="312.713" cy="322.812" r="8.341"/>
	<circle style="fill:#333333;" cx="356.084" cy="279.441" r="8.341"/>
	<circle style="fill:#333333;" cx="356.64" cy="236.071" r="8.341"/>
	<circle style="fill:#333333;" cx="442.825" cy="236.616" r="8.341"/>
</g>
<g>
</g>
<g>
</g>
<g>
</g>
<g>
</g>
<g>
</g>
<g>
</g>
<g>
</g>
<g>
</g>
<g>
</g>
<g>
</g>
<g>
</g>
<g>
</g>
<g>
</g>
<g>
</g>
<g>
</g>
</svg>
